<svg width="40" height="40" viewBox="0 0 40 40" fill="none" xmlns="http://www.w3.org/2000/svg">
<mask id="mask0_1_386" style="mask-type:alpha" maskUnits="userSpaceOnUse" x="0" y="0" width="40" height="40">
<rect width="40" height="40" fill="#D9D9D9"/>
</mask>
<g mask="url(#mask0_1_386)">
<path d="M20 36.375C16.1113 36.375 12.771 35.0903 9.979 32.521C7.18766 29.9517 5.62533 26.764 5.292 22.958C5.264 22.5973 5.375 22.285 5.625 22.021C5.875 21.757 6.19433 21.625 6.583 21.625C6.91633 21.625 7.215 21.75 7.479 22C7.743 22.25 7.90266 22.5693 7.958 22.958C8.264 26.014 9.56266 28.5767 11.854 30.646C14.146 32.7153 16.8613 33.75 20 33.75C23.3613 33.75 26.2223 32.5763 28.583 30.229C30.9443 27.8817 32.125 25.0277 32.125 21.667C32.125 18.2777 30.9653 15.4097 28.646 13.063C26.3267 10.7157 23.4863 9.542 20.125 9.542H19.417L21.375 11.5C21.653 11.778 21.785 12.0907 21.771 12.438C21.757 12.7847 21.625 13.083 21.375 13.333C21.097 13.611 20.7847 13.75 20.438 13.75C20.0907 13.75 19.792 13.611 19.542 13.333L15.25 9.083C15.1113 8.94433 15.014 8.79867 14.958 8.646C14.9027 8.49333 14.875 8.33367 14.875 8.167C14.875 8.00033 14.9027 7.84067 14.958 7.688C15.014 7.53467 15.1113 7.38867 15.25 7.25L19.542 2.958C19.792 2.708 20.0973 2.583 20.458 2.583C20.8193 2.583 21.125 2.708 21.375 2.958C21.625 3.236 21.75 3.54867 21.75 3.896C21.75 4.24333 21.625 4.542 21.375 4.792L19.25 6.917H20C22.0553 6.917 23.979 7.299 25.771 8.063C27.5623 8.82633 29.1247 9.87467 30.458 11.208C31.7913 12.5413 32.84 14.104 33.604 15.896C34.368 17.6873 34.75 19.597 34.75 21.625C34.75 23.6803 34.368 25.604 33.604 27.396C32.84 29.1873 31.7913 30.7497 30.458 32.083C29.1247 33.4163 27.5623 34.465 25.771 35.229C23.979 35.993 22.0553 36.375 20 36.375Z" fill="white"/>
</g>
</svg>
