<svg width="40" height="40" viewBox="0 0 40 40" fill="none" xmlns="http://www.w3.org/2000/svg">
<mask id="mask0_1_476" style="mask-type:alpha" maskUnits="userSpaceOnUse" x="0" y="0" width="40" height="40">
<rect width="40" height="40" fill="#D9D9D9"/>
</mask>
<g mask="url(#mask0_1_476)">
<path d="M18.25 23.375L15.542 20.667C15.264 20.389 14.9167 20.25 14.5 20.25C14.0833 20.25 13.75 20.389 13.5 20.667C13.1947 20.9443 13.035 21.2847 13.021 21.688C13.007 22.0907 13.1527 22.4307 13.458 22.708L17.292 26.458C17.542 26.708 17.8613 26.833 18.25 26.833C18.6387 26.833 18.958 26.6943 19.208 26.417L26.625 19.042C26.875 18.764 27 18.4237 27 18.021C27 17.6183 26.875 17.278 26.625 17C26.347 16.75 26.0067 16.625 25.604 16.625C25.2013 16.625 24.875 16.75 24.625 17L18.25 23.375ZM20 36.625C17.9447 36.625 16.007 36.2293 14.187 35.438C12.3677 34.646 10.7847 33.5763 9.438 32.229C8.09067 30.8817 7.021 29.2983 6.229 27.479C5.43767 25.6597 5.042 23.7083 5.042 21.625C5.042 19.5697 5.43767 17.6323 6.229 15.813C7.021 13.993 8.09067 12.4027 9.438 11.042C10.7847 9.68067 12.3677 8.611 14.187 7.833C16.007 7.05567 17.9447 6.667 20 6.667C22.0553 6.667 23.9927 7.05567 25.812 7.833C27.632 8.611 29.2223 9.68067 30.583 11.042C31.9443 12.4027 33.014 13.993 33.792 15.813C34.5693 17.6323 34.958 19.5697 34.958 21.625C34.958 23.7083 34.5693 25.6597 33.792 27.479C33.014 29.2983 31.9443 30.8817 30.583 32.229C29.2223 33.5763 27.632 34.646 25.812 35.438C23.9927 36.2293 22.0553 36.625 20 36.625ZM5.083 11.667C4.80567 11.917 4.47933 12.035 4.104 12.021C3.72933 12.007 3.403 11.875 3.125 11.625C2.875 11.347 2.75 11.0137 2.75 10.625C2.75 10.2363 2.875 9.917 3.125 9.667L8.125 4.833C8.403 4.583 8.72933 4.458 9.104 4.458C9.47933 4.458 9.792 4.597 10.042 4.875C10.3193 5.125 10.458 5.44433 10.458 5.833C10.458 6.22233 10.3193 6.542 10.042 6.792L5.083 11.667ZM34.917 11.625L29.917 6.75C29.667 6.5 29.5487 6.18733 29.562 5.812C29.576 5.43733 29.708 5.125 29.958 4.875C30.208 4.625 30.5277 4.5 30.917 4.5C31.3057 4.5 31.625 4.625 31.875 4.875L36.875 9.708C37.125 9.958 37.25 10.2777 37.25 10.667C37.25 11.0557 37.125 11.375 36.875 11.625C36.625 11.875 36.3057 12 35.917 12C35.5277 12 35.1943 11.875 34.917 11.625Z" fill="white"/>
</g>
</svg>
